<svg xmlns="http://www.w3.org/2000/svg" width="150" height="150" viewBox="0 0 150 150" version="1.1">
	<path d="M 68.500 24.858 C 64.528 25.496, 64.494 25.538, 63.680 31 C 62.255 40.553, 62.043 41.154, 60.214 40.812 C 59.022 40.588, 58.005 38.512, 56.875 33.995 L 55.251 27.500 50.786 27.553 C 48.331 27.582, 44.244 28.399, 41.704 29.369 L 37.088 31.132 37.638 37.816 C 38.949 53.755, 39.644 56.221, 43.971 60.286 C 46.773 62.920, 47.996 64.898, 47.985 66.786 C 47.951 73.167, 42.950 109.517, 42.066 109.811 C 41.532 109.989, 39.612 111.126, 37.798 112.337 C 32.913 115.600, 31.003 120.211, 31.002 128.750 L 31 136 75 136 L 119 136 118.998 128.750 C 118.997 120.211, 117.087 115.600, 112.202 112.337 C 110.388 111.126, 108.468 109.989, 107.934 109.811 C 107.042 109.514, 102.048 73.134, 102.015 66.685 C 102.005 64.767, 102.967 63.057, 105.036 61.316 C 106.706 59.911, 108.698 57.551, 109.464 56.070 C 111.456 52.218, 113.253 31.788, 111.689 30.762 C 109.316 29.205, 99.958 26.873, 97.325 27.182 C 94.890 27.469, 94.490 28.116, 93.230 33.813 C 91.863 39.995, 89.643 42.658, 88.032 40.051 C 87.610 39.369, 86.978 36.061, 86.626 32.699 C 86.275 29.338, 85.653 26.276, 85.244 25.895 C 84.098 24.828, 72.979 24.140, 68.500 24.858" stroke="white" stroke-width="3" fill="black" fill-rule="evenodd"/>
</svg>