<svg xmlns="http://www.w3.org/2000/svg" width="150" height="150" viewBox="0 0 150 150" version="1.1">
	<path d="M 66.500 35.408 C 59.475 38.521, 54.063 46.866, 54.022 54.648 C 54.008 57.312, 55.023 60.742, 56.859 64.232 L 59.718 69.668 55.359 72.426 C 50.475 75.516, 49.718 78.621, 52.526 84.050 C 53.837 86.586, 54.624 87, 58.134 87 C 62.085 87, 62.195 87.089, 61.543 89.750 C 60.034 95.911, 55.270 102.536, 48.909 107.320 C 45.384 109.971, 41.296 113.926, 39.824 116.110 C 37.130 120.107, 35 127.586, 35 133.049 L 35 136 75.138 136 L 115.275 136 114.643 130.750 C 113.180 118.610, 113.047 118.407, 97.083 103.792 C 92.169 99.294, 88.069 92.488, 88.022 88.750 C 88.005 87.373, 88.848 87, 91.974 87 C 95.364 87, 96.173 86.566, 97.474 84.050 C 100.145 78.885, 99.489 75.472, 95.316 72.832 C 93.290 71.549, 91.233 70.229, 90.746 69.898 C 90.259 69.566, 90.993 67.625, 92.378 65.584 C 95.508 60.972, 96.525 54.665, 95.033 49.122 C 93.687 44.123, 87.822 37.248, 83.282 35.347 C 79.208 33.642, 70.413 33.674, 66.500 35.408" stroke="black" stroke-width="3" fill="white" fill-rule="evenodd"/>
</svg>