<svg xmlns="http://www.w3.org/2000/svg" width="150" height="150" viewBox="0 0 150 150" version="1.1">
	<path d="M 59 15.709 C 55.920 16.842, 54.028 19.392, 52.570 24.373 C 51.506 28.008, 49.766 30.757, 46.591 33.821 C 43.569 36.738, 41.563 39.824, 40.420 43.321 C 37.940 50.904, 35.434 55.530, 28.860 64.667 C 22.107 74.053, 21.085 77.330, 23.474 81.949 C 25.276 85.434, 32.372 89.250, 39.277 90.446 C 43.198 91.126, 44.764 90.090, 50.240 83.192 C 51.265 81.902, 53.115 80.991, 54.740 80.978 C 58.534 80.948, 64.895 77.909, 69.349 73.998 C 71.394 72.203, 73.331 70.998, 73.654 71.320 C 75.521 73.188, 71.831 78.403, 61.535 88.448 C 52.262 97.496, 49.886 100.421, 48.431 104.578 C 47.047 108.531, 45.809 110.141, 42.841 111.849 C 37.745 114.782, 35.896 118.755, 35.252 128.154 L 34.714 136 79.501 136 L 124.288 136 123.604 127.804 C 122.837 118.601, 120.932 114.556, 116 111.652 C 113.786 110.349, 113.049 109.318, 113.501 108.152 C 115.677 102.535, 118.995 85.489, 118.981 80 C 118.934 60.844, 109.049 41.973, 94.637 33.528 C 89.507 30.521, 79.626 27, 76.318 27 C 74.806 27, 71.616 24.829, 67.500 21 C 63.953 17.700, 60.927 15.036, 60.775 15.079 C 60.624 15.122, 59.825 15.406, 59 15.709" stroke="black" stroke-width="3" fill="white" fill-rule="evenodd"/>
</svg>