<svg xmlns="http://www.w3.org/2000/svg" width="150" height="150" viewBox="0 0 150 150" version="1.1">
	<path d="M 66 17 L 66 22 61 22 L 56 22 56 31 L 56 40 60.500 40 C 64.982 40, 65.942 40.969, 64.190 43.727 C 63.581 44.686, 61.670 44.598, 55.455 43.325 C 41.033 40.370, 28.981 44.381, 22.264 54.372 C 18.086 60.585, 16.661 66.037, 17.256 73.529 C 17.919 81.887, 20.625 86.557, 31.558 98.217 C 36.751 103.755, 40.997 108.784, 40.994 109.393 C 40.990 110.002, 39.672 111.248, 38.064 112.163 C 33.762 114.611, 31.729 119.377, 31.203 128.250 L 30.743 136 74.971 136 L 119.199 136 118.849 127.054 C 118.512 118.412, 118.383 117.988, 115.054 114.554 C 113.158 112.599, 111.021 111, 110.304 111 C 107.746 111, 109.126 108.975, 118.581 98.861 C 130.680 85.920, 133.368 80.954, 133.394 71.500 C 133.409 66.073, 132.840 63.264, 130.863 59 C 124.496 45.267, 111.970 39.823, 95 43.412 C 85.549 45.411, 86 45.457, 86 42.500 C 86 40.204, 86.367 40, 90.500 40 L 95 40 95 31 L 95 22 90 22 L 85 22 85 17 L 85 12 75.500 12 L 66 12 66 17 M 47.250 68.491 C 43.776 70.996, 44.475 74.269, 49.857 80.698 C 56.393 88.506, 58.396 90.169, 60.355 89.417 C 61.710 88.897, 62 87.225, 62 79.916 C 62 71.595, 61.848 70.946, 59.538 69.433 C 55.845 67.013, 49.928 66.559, 47.250 68.491 M 92.250 68.745 L 89 70.363 89 79.574 C 89 91.753, 90.187 92.328, 97.886 83.879 C 105.072 75.992, 106.260 73.814, 105.076 70.699 C 103.604 66.827, 97.862 65.953, 92.250 68.745" stroke="black" stroke-width="3" fill="white" fill-rule="evenodd"/>
</svg>