<svg xmlns="http://www.w3.org/2000/svg" width="150" height="150" viewBox="0 0 150 150" version="1.1">
	<path d="M 51.304 17.956 C 43.006 23.016, 42.122 34.448, 49.561 40.500 C 52.010 42.492, 52.017 42.550, 51.353 55.304 L 50.686 68.108 46.317 63.820 C 42.202 59.782, 41.984 59.291, 42.568 55.398 C 44.191 44.575, 31.868 36.210, 22.673 41.893 C 13.861 47.339, 14.234 59.665, 23.373 65.057 C 26.209 66.731, 27.656 69.507, 35.367 88.078 C 40.191 99.693, 43.994 109.265, 43.818 109.348 C 34.075 113.993, 32.184 116.799, 31.329 127.891 L 30.702 136.021 75.101 135.761 L 119.500 135.500 119.229 128.020 C 118.844 117.417, 115.656 112.385, 107.626 109.709 C 107.100 109.533, 110.621 99.893, 115.451 88.287 C 123.419 69.142, 124.571 66.967, 127.867 64.842 C 135.597 59.859, 136.812 51.039, 130.689 44.358 C 124.951 38.097, 115.725 38.757, 110.500 45.803 C 109.046 47.764, 108.500 50.066, 108.500 54.234 C 108.500 59.616, 108.247 60.221, 104.391 64.079 L 100.282 68.189 99.557 55.478 L 98.833 42.767 101.933 39.569 C 105.875 35.502, 107.288 30.781, 105.997 25.990 C 102.856 14.325, 85.966 12.429, 80.437 23.121 C 78.449 26.966, 78.918 35.347, 81.252 37.681 C 82.628 39.056, 82.427 40.278, 79.284 49.665 C 77.359 55.413, 75.637 59.971, 75.458 59.792 C 75.279 59.613, 73.543 55.073, 71.599 49.704 L 68.065 39.941 70.029 36.721 C 77.292 24.809, 63.210 10.697, 51.304 17.956" stroke="black" stroke-width="3" fill="white" fill-rule="evenodd"/>
</svg>