<svg xmlns="http://www.w3.org/2000/svg" width="150" height="150" viewBox="0 0 150 150" version="1.1">
	<path d="M 66.763 14.565 C 61.837 17.238, 59.314 25.981, 62.013 31.024 C 62.814 32.521, 62.612 33.137, 61.047 33.975 C 57.242 36.011, 46.832 49.571, 42.726 57.839 C 38.943 65.456, 38.549 66.988, 38.176 75.526 C 37.682 86.807, 40.042 95.929, 45.507 103.874 L 49.033 109 46.228 109 C 42.359 109, 35.040 112.921, 32.559 116.323 C 30.960 118.514, 30.421 121.030, 30.147 127.573 L 29.795 136 74.023 136 L 118.251 136 117.803 127.477 C 117.467 121.062, 116.865 118.280, 115.370 116.227 C 112.943 112.897, 105.595 109, 101.740 109 L 98.904 109 102.107 104.344 C 106.970 97.276, 109.174 90.505, 109.749 80.864 C 110.610 66.442, 105.646 54.417, 93.302 41.019 L 88.252 35.538 86.109 39.019 C 82.790 44.412, 80.009 54.507, 78.746 65.750 L 77.595 76 73.696 76 L 69.797 76 70.495 68.750 C 72.224 50.807, 76.727 37.629, 85.111 25.971 C 85.931 24.831, 85.818 23.499, 84.666 20.743 C 81.864 14.036, 73.229 11.057, 66.763 14.565" stroke="black" stroke-width="3" fill="white" fill-rule="evenodd"/>
</svg>